<?xml version="1.0" standalone="no"?>
<!DOCTYPE svg PUBLIC "-//W3C//DTD SVG 20010904//EN"
        "http://www.w3.org/TR/2001/REC-SVG-20010904/DTD/svg10.dtd">
<svg version="1.0" xmlns="http://www.w3.org/2000/svg"
     width="384.000000pt" height="384.000000pt" viewBox="0 0 384.000000 384.000000"
     preserveAspectRatio="xMidYMid meet">
    <metadata>
        Created by potrace 1.11, written by Peter Selinger 2001-2013
    </metadata>
    <g transform="translate(0.000000,384.000000) scale(0.100000,-0.100000)"
       fill="#000000" stroke="none">
        <path d="M3282 3318 c-69 -11 -172 -52 -242 -96 -30 -19 -97 -79 -150 -133
l-95 -99 -1161 0 c-1275 0 -1198 3 -1326 -60 -67 -34 -73 -38 -147 -110 -140
-138 -211 -415 -117 -458 28 -13 1948 -14 1985 -1 14 5 35 26 46 47 17 32 29
40 85 58 36 12 83 25 105 28 l40 7 -56 -53 c-119 -112 -258 -238 -354 -323
-55 -48 -113 -99 -130 -114 -35 -30 -173 -146 -258 -215 -32 -26 -124 -97
-205 -157 -81 -61 -154 -116 -162 -122 -41 -32 -288 -192 -389 -252 -62 -37
-128 -80 -146 -96 -163 -144 -163 -413 1 -558 116 -102 275 -125 412 -61 58
27 329 200 364 232 14 13 23 19 86 59 17 12 32 25 32 30 0 5 5 9 11 9 6 0 21
9 33 19 11 11 82 68 156 127 74 59 169 137 210 173 41 36 90 80 109 96 94 83
181 166 346 330 208 209 334 343 425 455 25 30 50 59 56 65 16 14 202 249 249
315 22 30 44 58 49 62 5 4 89 4 185 1 253 -9 329 -7 346 7 8 7 15 9 15 6 0
-17 91 58 111 91 30 49 32 55 32 135 0 57 -5 74 -29 112 -60 91 -111 115 -252
117 l-92 1 22 37 c12 20 26 38 30 39 4 2 8 8 8 13 0 5 16 31 35 58 61 85 54
145 -20 169 -49 16 -182 22 -253 10z"/>
    </g>
</svg>
